<svg width="93" height="32" viewBox="0 0 93 32" fill="none" xmlns="http://www.w3.org/2000/svg">
<path d="M13.8194 31.9997C8.01959 31.9997 2.7814 28.7216 0.204721 23.6576C-0.306489 22.6558 0.177213 21.434 1.2386 21.0672C2.10285 20.7692 3.06108 21.1474 3.47601 21.9635C5.42686 25.8194 9.40879 28.3158 13.8194 28.3158C17.5561 28.3158 20.9855 26.5231 23.1335 23.6301C23.8258 22.6971 24.7864 21.2116 24.7864 18.8252L28.0897 22.2867C28.0897 22.2867 27.9155 22.7819 27.5808 23.4123C27.2461 24.0405 27.1063 24.2789 26.9023 24.6159C24.1789 29.1319 19.2456 31.9997 13.8194 31.9997Z" fill="#5EBC52"/>
<path d="M21.1228 15.8633C20.9829 14.0065 20.16 12.5278 18.741 11.5857C17.5558 10.7994 15.958 10.3982 13.9956 10.3982H13.7756V10.3913H11.8545V7.37219H18.0349C18.961 7.37219 19.7175 6.67071 19.7175 5.77437C19.7175 4.87575 18.9519 4.12842 18.0349 4.12842H10.1719C9.24345 4.12842 8.48925 4.88033 8.48925 5.81105V11.9708C8.48925 12.8992 9.24116 13.6534 10.1719 13.6534H14.0644C16.6686 13.6534 17.4985 14.8478 17.4985 16.0811C17.4985 17.2938 16.8428 19.2401 14.108 19.2401C11.8476 19.2401 10.4974 17.711 10.2177 17.4611C9.381 16.7115 8.53739 16.7642 7.97804 17.2571C7.26509 17.8875 7.35221 18.7701 7.78318 19.4257C8.29669 20.2029 10.2957 22.6168 14.1057 22.6168C16.2697 22.6168 18.1816 21.8397 19.4883 20.4321C20.6528 19.1782 21.2466 17.5139 21.1228 15.8633Z" fill="#58595B"/>
<path d="M58.9314 18.0757C57.0952 17.9863 55.3484 17.2343 54.5598 16.5214C53.6864 15.7305 53.5213 14.6737 54.2022 14.08C55.0939 13.3028 55.9971 14.0135 56.3823 14.2519C58.3813 15.4921 59.9768 15.3958 60.7333 14.7975C61.1757 14.449 61.3568 14.0158 61.2972 13.6559C61.1872 13.0025 60.4215 12.771 59.4679 12.5097C58.7503 12.3125 56.8178 11.7463 55.9009 11.219C54.5873 10.4602 53.6841 9.19712 53.9913 7.43883C54.3145 5.57968 55.9192 4.179 58.0145 3.98415C60.6691 3.73657 61.9666 4.37844 62.7277 4.78879C63.8166 5.37565 64.0206 6.57229 63.4498 7.25314C63.1862 7.5672 62.4182 7.86293 61.6502 7.52365C59.0254 6.36368 57.6867 6.68233 57.3451 7.36318C56.9829 8.08529 57.6362 8.77989 58.4752 9.10312C58.5257 9.12146 59.0277 9.32549 59.7361 9.55473C60.3482 9.75417 61.1069 9.96049 61.9368 10.27C63.4658 10.8385 64.7519 12.0489 64.5593 14.0731C64.4562 15.1482 63.8212 16.3334 62.8721 17.0349C62.1729 17.5507 60.7883 18.1674 58.9314 18.0757Z" fill="#58595B"/>
<path d="M74.7129 14.8365C74.3255 14.6921 73.757 14.754 73.42 14.8136C72.9661 14.8939 72.2554 14.9787 71.6777 14.8136C70.6691 14.5271 70.2954 13.9517 70.2954 13.0645V7.13631H72.6887C73.5988 7.13631 74.3392 6.43024 74.3392 5.56141C74.3392 4.6903 73.6011 3.98652 72.6887 3.98652H70.2954V1.7239C70.2954 0.772547 69.5251 0 68.5715 0C67.6201 0 66.8499 0.772547 66.8499 1.7239V3.98652H66.0705C65.1604 3.98652 64.4199 4.69259 64.4199 5.56141C64.4199 6.43253 65.1581 7.13631 66.0705 7.13631H66.8499V13.0645C66.8499 15.8498 69.0712 18.117 71.9024 18.117C74.7335 18.117 75.4831 17.1015 75.4831 16.1501C75.4809 15.467 75.2516 15.036 74.7129 14.8365Z" fill="#58595B"/>
<path d="M46.4042 3.98657C42.6079 3.98657 39.52 7.14782 39.52 11.0312C39.52 14.9168 42.6079 18.0758 46.4019 18.0758V18.0735V18.0758C50.1981 18.0758 53.2837 14.9145 53.2837 11.0312C53.2883 7.14553 50.2004 3.98657 46.4042 3.98657ZM46.4042 14.9008C44.4418 14.9008 42.8486 13.507 42.8486 11.0312C42.8486 8.55537 44.4441 7.14553 46.4042 7.14553V7.14324V7.14553C48.3642 7.14553 49.9597 8.55537 49.9597 11.0312C49.9597 13.507 48.3642 14.9008 46.4042 14.9008Z" fill="#58595B"/>
<path d="M31.9824 3.98657C30.6321 3.98657 28.9495 4.76829 28.0944 5.97869C28.0463 4.81184 27.4205 4.03013 26.5081 4.03013C25.5567 4.03013 24.7842 4.80268 24.7842 5.75403V21.6015C24.7842 22.5529 25.5567 23.3254 26.5081 23.3254C27.4594 23.3254 28.232 22.5552 28.232 21.6015V16.4C28.8853 17.2505 30.5106 18.0827 32.1268 18.0827C35.9231 18.0827 38.651 14.9168 38.651 11.0312C38.651 7.14553 35.9001 3.98657 31.9824 3.98657ZM31.7669 14.9008C29.5616 14.9008 28.0348 13.358 28.0348 11.0312C28.0348 8.4843 29.8986 7.14553 31.7669 7.14553C33.7269 7.14553 35.3224 8.98176 35.3224 11.0312C35.3247 13.0806 33.7292 14.9008 31.7669 14.9008Z" fill="#58595B"/>
<path d="M87.3377 8.75481L86.3611 7.13178L85.4029 8.75481H84.259L85.7307 6.3088L84.2314 4.03931H85.4258L86.3863 5.5546L87.3033 4.03931H88.4472L86.9732 6.38445L88.4885 8.75481H87.3377Z" fill="#231F20"/>
<path d="M92.2116 7.15232C92.2116 8.18849 91.4298 8.83725 90.4051 8.83725C89.5019 8.83725 88.7431 8.33979 88.6675 7.25318H89.644C89.7128 7.72542 90.0888 7.92716 90.4991 7.92716C91.0103 7.92716 91.2327 7.58329 91.2327 7.13856C91.2327 6.6732 90.8888 6.38436 90.412 6.38436C90.0154 6.38436 89.7518 6.57463 89.6303 6.77636H88.6973L89.0205 4.0415H92.0901L91.9869 4.95847H89.7908L89.7037 5.86398C89.7037 5.86398 89.9352 5.59347 90.6344 5.59347C91.4757 5.58889 92.2116 6.15512 92.2116 7.15232Z" fill="#231F20"/>
<path d="M88.7845 3.45239C88.2642 1.4236 86.6136 0 83.1888 0H79.0532L79.6149 3.79625C80.0367 7.22113 81.3479 8.32378 83.6656 8.72954C83.677 8.73183 83.7504 8.741 83.7504 8.65618C83.7504 8.62638 83.7321 8.59887 83.7045 8.58741C82.1365 7.92719 81.9577 5.76315 81.623 3.59223L81.364 1.86145H83.7252C85.903 1.86145 87.5833 1.82706 88.647 3.5074C88.6631 3.53033 88.6883 3.54867 88.7158 3.54867C88.757 3.54867 88.7868 3.51428 88.7868 3.47302C88.7868 3.46614 88.7868 3.45927 88.7845 3.45239Z" fill="#5EBC52"/>
</svg>
