<!-- icon666.com - MILLIONS OF FREE VECTOR ICONS --><svg viewBox="0 -61 512 512" xmlns="http://www.w3.org/2000/svg"><path d="m449.480469 96.679688c-2.785157-4.175782-7.472657-6.679688-12.480469-6.679688h-120c-8.289062 0-15 6.710938-15 15v75l90 30 113.027344-30zm0 0" fill="#3c1b13"></path><path d="m512 195c0-6.808594-4.246094-10.292969-6.972656-15h-203.027344v120l30 30h165c8.289062 0 15-6.710938 15-15v-45l-30-15 30-15zm0 0" fill="#e63950"></path><path d="m467 240c-8.289062 0-15 6.710938-15 15s6.710938 15 15 15h45v-30zm0 0" fill="#ffbfab"></path><path d="m332 15v315h-317c-8.402344 0-15-6.601562-15-15v-300c0-8.402344 6.597656-15 15-15h302c8.402344 0 15 6.597656 15 15zm0 0" fill="#d9e7ec"></path><path d="m332 15v315h-167v-330h152c8.402344 0 15 6.597656 15 15zm0 0" fill="#c5d3dd"></path><path d="m105 270c-33 0-60 27-60 60s27 60 60 60 60-27 60-60-27-60-60-60zm0 0" fill="#663325"></path><path d="m165 330c0 33-27 60-60 60v-120c33 0 60 27 60 60zm0 0" fill="#582b1f"></path><path d="m105 300c-16.5 0-30 13.5-30 30s13.5 30 30 30 30-13.5 30-30-13.5-30-30-30zm0 0" fill="#d9e7ec"></path><path d="m135 330c0 16.5-13.5 30-30 30v-60c16.5 0 30 13.5 30 30zm0 0" fill="#c5d3dd"></path><path d="m392 270c-33 0-60 27-60 60s27 60 60 60 60-27 60-60-27-60-60-60zm0 0" fill="#663325"></path><path d="m452 330c0 33-27 60-60 60v-120c33 0 60 27 60 60zm0 0" fill="#582b1f"></path><path d="m392 300c-16.5 0-30 13.5-30 30s13.5 30 30 30 30-13.5 30-30-13.5-30-30-30zm0 0" fill="#d9e7ec"></path><path d="m422 330c0 16.5-13.5 30-30 30v-60c16.5 0 30 13.5 30 30zm0 0" fill="#c5d3dd"></path><path d="m165 60c-57.898438 0-105 47.101562-105 105s47.101562 105 105 105 105-47.101562 105-105-47.101562-105-105-105zm0 0" fill="#ec5569"></path><path d="m270 165c0 57.898438-47.101562 105-105 105v-210c57.898438 0 105 47.101562 105 105zm0 0" fill="#e63950"></path><path d="m165 240c-41.355469 0-75-33.644531-75-75s33.644531-75 75-75 75 33.644531 75 75-33.644531 75-75 75zm0 0" fill="#d9e7ec"></path><path d="m165 90v150c41.355469 0 75-33.644531 75-75s-33.644531-75-75-75zm0 0" fill="#c5d3dd"></path><path d="m240 165c0 8.398438-6.597656 15-15 15h-60c-8.402344 0-15-6.601562-15-15v-60c0-8.402344 6.597656-15 15-15s15 6.597656 15 15v45h45c8.402344 0 15 6.597656 15 15zm0 0" fill="#663325"></path><path d="m512 375c0 8.398438-6.597656 15-15 15h-482c-8.402344 0-15-6.601562-15-15 0-8.402344 6.597656-15 15-15h482c8.402344 0 15 6.597656 15 15zm0 0" fill="#582b1f"></path><path d="m512 375c0 8.398438-6.597656 15-15 15h-332v-30h332c8.402344 0 15 6.597656 15 15zm0 0" fill="#3c1b13"></path><path d="m240 165c0 8.398438-6.597656 15-15 15h-60v-90c8.402344 0 15 6.597656 15 15v45h45c8.402344 0 15 6.597656 15 15zm0 0" fill="#582b1f"></path></svg>