<svg width="439" height="99" viewBox="0 0 439 99" fill="none" xmlns="http://www.w3.org/2000/svg">
<path d="M8.6 84.432C7.66133 84.432 6.89333 84.816 6.296 85.584C5.69867 86.352 5.144 87.248 4.632 88.272C4.12 89.2107 3.52267 90.064 2.84 90.832C2.15733 91.6 1.26133 91.984 0.152 91.984C0.152 90.8747 0.408 89.8507 0.92 88.912C1.51733 87.888 2.24267 86.9493 3.096 86.096C3.94933 85.1573 4.80267 84.2613 5.656 83.408C6.59467 82.5547 7.40533 81.7013 8.088 80.848C8.94133 79.7387 9.96533 78.416 11.16 76.88C12.44 75.2587 13.6347 73.7653 14.744 72.4C15.9387 70.9493 17.0053 69.7547 17.944 68.816C18.8827 67.792 19.48 67.28 19.736 67.28C19.9067 67.28 20.0773 67.3227 20.248 67.408C20.4187 67.408 20.504 67.408 20.504 67.408L33.944 79.824C33.944 79.824 33.9867 79.8667 34.072 79.952C34.2427 79.952 34.3707 79.952 34.456 79.952C35.1387 79.952 35.48 79.696 35.48 79.184V78.8C35.48 78.3733 35.4373 77.3493 35.352 75.728C35.352 74.0213 35.3093 72.2293 35.224 70.352C35.1387 68.3893 35.0533 66.5973 34.968 64.976C34.968 63.2693 34.968 62.2027 34.968 61.776V48.72C34.968 44.5387 34.7973 40.6133 34.456 36.944C34.1147 33.1893 33.4747 29.6907 32.536 26.448C31.6827 23.12 30.4453 20.048 28.824 17.232C27.2027 14.416 25.112 11.8133 22.552 9.424C21.528 8.82666 20.632 8.48533 19.864 8.39999C19.096 8.31466 18.1573 8.272 17.048 8.272C16.024 8.272 15 8.48533 13.976 8.91199C13.0373 9.25333 12.1413 9.76533 11.288 10.448C10.52 11.1307 9.88 11.9413 9.368 12.88C8.856 13.7333 8.6 14.7147 8.6 15.824C8.6 17.36 9.06933 18.64 10.008 19.664C11.032 20.6027 12.312 21.5413 13.848 22.48C15.384 23.3333 17.0053 24.272 18.712 25.296C20.4187 26.2347 22.04 27.472 23.576 29.008C25.112 30.4587 26.3493 32.2933 27.288 34.512C28.312 36.6453 28.824 39.3333 28.824 42.576V44.112C28.824 46.5867 28.1413 48.976 26.776 51.28C25.496 53.4987 23.7893 55.4613 21.656 57.168C19.5227 58.8747 17.176 60.24 14.616 61.264C12.056 62.288 9.58133 62.8 7.192 62.8C6.936 62.8 6.552 62.672 6.04 62.416C5.61333 62.16 5.4 61.8187 5.4 61.392C5.4 61.136 6.08267 60.88 7.448 60.624C8.89867 60.2827 10.4773 59.8987 12.184 59.472C13.8907 58.96 15.4267 58.32 16.792 57.552C18.2427 56.6987 18.968 55.5893 18.968 54.224C18.968 52.944 18.3707 51.7493 17.176 50.64C16.0667 49.4453 14.7013 48.336 13.08 47.312C11.544 46.2027 9.96533 45.136 8.344 44.112C6.808 43.088 5.656 42.064 4.888 41.04C3.69333 39.4187 2.968 37.6693 2.712 35.792C2.456 33.9147 2.328 32.0373 2.328 30.16C2.328 26.4053 2.968 22.7787 4.248 19.28C5.528 15.696 7.32 12.5387 9.624 9.808C11.928 6.99199 14.7013 4.77333 17.944 3.15199C21.272 1.44533 24.9413 0.591995 28.952 0.591995C34.2427 0.591995 38.7653 1.61599 42.52 3.66399C46.36 5.71199 49.9013 8.65599 53.144 12.496C53.2293 12.496 53.3147 12.5387 53.4 12.624C53.4853 12.624 53.5707 12.624 53.656 12.624C53.656 12.624 53.8693 12.2827 54.296 11.6C54.7227 10.9173 55.192 10.1493 55.704 9.296C56.3013 8.35733 56.8133 7.50399 57.24 6.73599C57.752 5.96799 58.0933 5.45599 58.264 5.2C59.9707 3.23733 62.1467 2 64.792 1.488C67.5227 0.890663 70.1253 0.591995 72.6 0.591995C74.0507 0.591995 75.672 0.677327 77.464 0.847992C79.256 1.01866 80.8347 1.44533 82.2 2.128C83.3947 2.72533 84.5893 3.62133 85.784 4.81599C87.064 5.92533 88.216 7.07733 89.24 8.272C90.3493 9.38133 91.288 10.3627 92.056 11.216C92.824 12.0693 93.4213 12.496 93.848 12.496C94.1893 12.496 94.5733 12.1973 95 11.6C95.4267 11.0027 95.896 10.32 96.408 9.55199C96.92 8.78399 97.3893 8.05866 97.816 7.376C98.328 6.608 98.7973 6.05333 99.224 5.712C101.187 4.26133 103.277 3.152 105.496 2.384C107.8 1.53066 110.189 1.104 112.664 1.104C116.76 1.104 120.344 1.91466 123.416 3.536C126.573 5.15733 128.877 7.97333 130.328 11.984V13.52C130.328 14.1173 130.371 15.2267 130.456 16.848C130.541 18.384 130.584 20.048 130.584 21.84C130.669 23.5467 130.712 25.2107 130.712 26.832C130.797 28.4533 130.84 29.5627 130.84 30.16C131.096 31.0133 131.48 31.696 131.992 32.208C132.589 32.72 133.272 33.1467 134.04 33.488C134.808 33.744 135.576 33.9147 136.344 34C137.197 34.0853 137.965 34.1707 138.648 34.256V34.768C138.648 35.28 138.136 35.664 137.112 35.92C136.088 36.176 134.893 36.4747 133.528 36.816C132.248 37.1573 130.925 37.584 129.56 38.096C128.28 38.5227 127.341 39.1627 126.744 40.016C125.549 41.7227 124.781 43.728 124.44 46.032C124.184 48.336 124.056 50.5973 124.056 52.816V56.016C124.056 57.1253 124.013 58.576 123.928 60.368C123.928 62.0747 123.971 63.9093 124.056 65.872C124.141 67.8347 124.312 69.84 124.568 71.888C124.824 73.8507 125.208 75.6427 125.72 77.264C126.317 78.8 127.085 80.08 128.024 81.104C129.048 82.0427 130.328 82.512 131.864 82.512C132.547 82.512 133.187 82.3413 133.784 82C134.381 81.6587 134.936 81.3173 135.448 80.976C135.96 80.5493 136.472 80.1653 136.984 79.824C137.496 79.4827 138.051 79.312 138.648 79.312V80.976L116.888 97.488C116.803 97.5733 116.632 97.6587 116.376 97.744C116.12 97.8293 115.949 97.9147 115.864 98H115.352C112.877 96.3787 110.744 94.7573 108.952 93.136C107.245 91.5147 105.837 89.68 104.728 87.632C103.704 85.4987 102.936 82.9813 102.424 80.08C101.997 77.0933 101.784 73.4667 101.784 69.2C101.784 65.872 101.869 62.7573 102.04 59.856C102.296 56.9547 102.893 54.3093 103.832 51.92C104.771 49.4453 106.179 47.2693 108.056 45.392C109.933 43.5147 112.536 41.8933 115.864 40.528C116.547 40.272 117.357 39.9733 118.296 39.632C119.32 39.2907 120.344 38.9493 121.368 38.608C122.392 38.2667 123.331 37.9253 124.184 37.584C125.123 37.1573 125.805 36.7307 126.232 36.304V36.048C126.232 35.792 125.72 35.536 124.696 35.28C123.672 35.024 122.477 34.8107 121.112 34.64C119.832 34.384 118.509 34.128 117.144 33.872C115.864 33.5307 114.925 33.1467 114.328 32.72C113.389 32.0373 112.451 31.312 111.512 30.544C110.573 29.6907 109.933 28.6667 109.592 27.472C109.336 26.448 109.165 24.8267 109.08 22.608C108.995 20.3893 108.781 18.128 108.44 15.824C108.184 13.52 107.672 11.5147 106.904 9.808C106.221 8.10133 105.069 7.24799 103.448 7.24799C102.083 7.24799 100.888 7.63199 99.864 8.39999C98.9253 9.16799 98.1147 10.1493 97.432 11.344C96.8347 12.4533 96.3653 13.648 96.024 14.928C95.768 16.208 95.64 17.4027 95.64 18.512C95.64 21.7547 95.8107 24.9973 96.152 28.24C96.4933 31.4827 96.664 34.7253 96.664 37.968C96.664 42.832 96.1947 47.1413 95.256 50.896C94.3173 54.6507 92.9947 58.1493 91.288 61.392C89.6667 64.5493 87.6613 67.664 85.272 70.736C82.968 73.7227 80.3653 76.9227 77.464 80.336C76.6107 81.36 75.4587 82.512 74.008 83.792C72.5573 84.9867 71.6613 86.2667 71.32 87.632C71.064 88.0587 70.552 88.7413 69.784 89.68C69.016 90.5333 68.2053 91.5147 67.352 92.624C66.584 93.648 65.816 94.6293 65.048 95.568C64.28 96.5067 63.768 97.1467 63.512 97.488L62.488 98.512H61.976C59.3307 96.464 56.6853 94.2453 54.04 91.856C51.3947 89.3813 48.8347 87.12 46.36 85.072H46.104C45.1653 85.072 44.2267 85.6693 43.288 86.864C42.4347 88.0587 41.5387 89.3813 40.6 90.832C39.7467 92.1973 38.8933 93.4773 38.04 94.672C37.1867 95.8667 36.4187 96.464 35.736 96.464C35.224 96.464 34.968 96.1227 34.968 95.44C34.968 94.5013 35.5227 93.3493 36.632 91.984C37.8267 90.6187 39.1493 89.168 40.6 87.632C42.0507 86.096 43.416 84.56 44.696 83.024C46.0613 81.488 46.9573 80.08 47.384 78.8C47.896 78.2027 48.5787 77.3493 49.432 76.24C50.2853 75.1307 51.1387 74.0213 51.992 72.912C52.8453 71.8027 53.6133 70.864 54.296 70.096C55.064 69.328 55.5333 68.944 55.704 68.944C55.96 68.944 56.6427 69.4133 57.752 70.352C58.9467 71.2053 60.2693 72.272 61.72 73.552C63.256 74.832 64.8347 76.1973 66.456 77.648C68.0773 79.0987 69.528 80.336 70.808 81.36C71.2347 81.1893 71.4907 80.8053 71.576 80.208C71.7467 79.6107 71.832 79.0133 71.832 78.416V77.264C71.832 77.0933 71.7893 76.7093 71.704 76.112C71.6187 75.5147 71.5333 74.8747 71.448 74.192C71.448 73.424 71.4053 72.7413 71.32 72.144C71.32 71.5467 71.32 71.1627 71.32 70.992V44.112C71.2347 42.7467 71.1493 40.912 71.064 38.608C71.064 36.2187 70.9787 33.7013 70.808 31.056C70.6373 28.3253 70.3387 25.5947 69.912 22.864C69.5707 20.1333 69.016 17.6587 68.248 15.44C67.5653 13.136 66.6267 11.3013 65.432 9.936C64.3227 8.48533 62.872 7.75999 61.08 7.75999C59.6293 7.75999 58.4347 8.48533 57.496 9.936C56.6427 11.3867 56.216 12.752 56.216 14.032V15.056C56.8987 19.664 57.5813 24.2293 58.264 28.752C59.032 33.1893 59.416 37.7547 59.416 42.448C59.416 47.6533 58.2213 52.6453 55.832 57.424C53.528 62.1173 50.6693 66.7253 47.256 71.248C43.8427 75.7707 40.216 80.2507 36.376 84.688C32.536 89.1253 29.1227 93.5627 26.136 98C25.9653 98.3413 25.624 98.512 25.112 98.512C24.6 98.512 23.6613 97.7867 22.296 96.336C21.016 94.8853 19.5227 93.264 17.816 91.472C16.1947 89.68 14.5307 88.0587 12.824 86.608C11.2027 85.1573 9.79467 84.432 8.6 84.432ZM173.795 29.136H175.843C179.342 32.2933 182.67 34.9387 185.827 37.072C189.07 39.12 192.824 40.9547 197.091 42.576C197.432 42.7467 197.603 43.1307 197.603 43.728C197.603 43.984 197.304 44.24 196.707 44.496C196.11 44.752 195.427 45.0933 194.659 45.52C193.891 45.8613 193.123 46.3307 192.355 46.928C191.672 47.5253 191.16 48.336 190.819 49.36C190.819 50.384 190.776 52.2613 190.691 54.992C190.691 57.7227 190.648 60.5813 190.563 63.568C190.563 66.5547 190.52 69.4133 190.435 72.144C190.35 74.8747 190.307 76.752 190.307 77.776V78.416C190.307 78.8427 190.435 79.3973 190.691 80.08C190.947 80.6773 191.288 81.2747 191.715 81.872C192.142 82.4693 192.611 82.9813 193.123 83.408C193.635 83.8347 194.147 84.048 194.659 84.048C195.598 84.048 196.408 83.8773 197.091 83.536C197.774 83.1093 198.584 82.896 199.523 82.896C199.523 83.7493 198.926 84.7733 197.731 85.968C196.536 87.1627 195.128 88.4427 193.507 89.808C191.886 91.1733 190.222 92.5387 188.515 93.904C186.894 95.184 185.614 96.3787 184.675 97.488C184.504 97.488 184.206 97.5307 183.779 97.616C183.438 97.616 183.224 97.616 183.139 97.616C181.603 97.616 180.11 96.9333 178.659 95.568C177.294 94.2027 176.056 92.7093 174.947 91.088C173.838 89.4667 172.899 87.9733 172.131 86.608C171.363 85.2427 170.808 84.56 170.467 84.56C169.272 84.56 168.163 85.072 167.139 86.096C166.2 87.12 165.304 87.9733 164.451 88.656C163.768 89.2533 162.83 90.064 161.635 91.088C160.44 92.112 159.246 93.136 158.051 94.16C156.856 95.184 155.832 96.08 154.979 96.848C154.126 97.616 153.656 98 153.571 98H153.059C151.608 97.4027 150.158 96.5067 148.707 95.312C147.342 94.032 146.062 92.624 144.867 91.088C143.758 89.4667 142.862 87.8027 142.179 86.096C141.496 84.304 141.155 82.5973 141.155 80.976V54.992C141.155 51.8347 141.88 49.2747 143.331 47.312C144.867 45.264 146.787 43.5573 149.091 42.192C151.395 40.7413 153.87 39.5467 156.515 38.608C159.16 37.584 161.635 36.5173 163.939 35.408C164.622 35.0667 165.432 34.64 166.371 34.128C167.31 33.5307 168.248 32.9333 169.187 32.336C170.126 31.6533 170.979 31.056 171.747 30.544C172.6 29.9467 173.283 29.4773 173.795 29.136ZM161.635 40.528H161.379L160.867 41.04V79.824C160.867 80.7627 161.208 81.7013 161.891 82.64C162.659 83.5787 163.47 84.048 164.323 84.048C165.432 84.048 166.414 83.792 167.267 83.28C168.12 82.6827 168.846 81.9573 169.443 81.104C170.04 80.1653 170.467 79.184 170.723 78.16C171.064 77.136 171.235 76.1547 171.235 75.216V50.896C171.235 49.7867 170.894 48.7627 170.211 47.824C169.528 46.8 168.718 45.8613 167.779 45.008C166.84 44.1547 165.816 43.3867 164.707 42.704C163.683 41.936 162.744 41.2107 161.891 40.528H161.635ZM201.655 84.56V82.128H205.751C206.434 82.128 206.946 81.36 207.287 79.824C207.714 78.2027 207.927 76.496 207.927 74.704V26.96C207.671 25.3387 207.415 23.8027 207.159 22.352C206.988 20.9013 206.732 19.4507 206.391 18C206.05 16.5493 205.58 15.056 204.983 13.52C204.471 11.8987 203.703 10.1493 202.679 8.272V6.992C203.703 6.992 204.514 7.54666 205.111 8.656C205.794 9.68 206.348 10.832 206.775 12.112C207.287 13.3067 207.756 14.4587 208.183 15.568C208.61 16.592 209.122 17.104 209.719 17.104C209.975 17.104 210.359 16.848 210.871 16.336C211.383 15.824 211.938 15.2693 212.535 14.672C213.132 13.9893 213.687 13.3493 214.199 12.752C214.796 12.0693 215.266 11.6 215.607 11.344C219.276 8.52799 223.116 6.69333 227.127 5.84C231.138 4.90133 235.447 4.432 240.055 4.432V6.224C238.434 6.48 237.026 6.77866 235.831 7.12C234.636 7.376 233.612 7.80266 232.759 8.39999C231.991 8.912 231.351 9.63733 230.839 10.576C230.327 11.5147 229.943 12.7947 229.687 14.416C229.516 15.0987 229.388 16.1653 229.303 17.616C229.303 19.0667 229.09 20.2613 228.663 21.2V78.8C228.663 80.08 229.004 81.1893 229.687 82.128C230.37 83.0667 231.351 83.536 232.631 83.536C233.996 83.536 235.191 83.2373 236.215 82.64C237.239 82.0427 238.391 81.744 239.671 81.744V82.384C239.671 82.896 238.818 83.8347 237.111 85.2C235.49 86.48 233.57 87.9307 231.351 89.552C229.218 91.088 227.042 92.624 224.823 94.16C222.604 95.696 220.94 96.976 219.831 98C219.746 98.0853 219.575 98.1707 219.319 98.256C219.063 98.4267 218.892 98.512 218.807 98.512H218.295C216.844 96.976 215.479 95.568 214.199 94.288C212.919 93.008 211.639 91.856 210.359 90.832C209.079 89.7227 207.756 88.656 206.391 87.632C205.026 86.608 203.447 85.584 201.655 84.56ZM242.655 84.304V83.536C242.911 83.3653 243.295 83.1093 243.807 82.768C244.404 82.4267 244.959 82.0427 245.471 81.616C246.068 81.1893 246.538 80.7627 246.879 80.336C247.306 79.824 247.519 79.312 247.519 78.8V42.576C247.519 42.32 247.69 42.192 248.031 42.192C248.372 42.1067 248.714 42.064 249.055 42.064H249.567C250.932 42.064 252.255 42.1493 253.535 42.32C254.9 42.4907 256.308 42.576 257.759 42.576C258.271 42.576 258.954 42.5333 259.807 42.448C260.66 42.3627 261.514 42.192 262.367 41.936C263.22 41.68 263.946 41.3387 264.543 40.912C265.226 40.4 265.567 39.76 265.567 38.992C265.567 38.3947 265.183 37.8827 264.415 37.456C262.367 36.7733 260.276 35.9627 258.143 35.024C256.01 34 254.047 32.8053 252.255 31.44C250.463 29.9893 249.012 28.3253 247.903 26.448C246.794 24.4853 246.239 22.2667 246.239 19.792C246.239 18.256 246.623 16.592 247.391 14.8C248.159 12.9227 249.183 11.1733 250.463 9.55199C251.743 7.93066 253.194 6.56533 254.815 5.45599C256.436 4.34666 258.1 3.79199 259.807 3.79199H267.999C268.17 3.79199 268.383 3.96266 268.639 4.30399C268.98 4.64533 269.151 4.90133 269.151 5.072L269.023 5.328C269.023 5.41333 268.938 5.49866 268.767 5.58399C268.682 5.66933 268.596 5.75466 268.511 5.84H267.103C266.25 5.84 265.268 5.88266 264.159 5.96799C263.05 6.05333 262.026 6.26666 261.087 6.60799C260.148 6.864 259.338 7.29066 258.655 7.88799C257.972 8.48533 257.631 9.33866 257.631 10.448C257.631 11.8987 258.271 13.0933 259.551 14.032C260.916 14.9707 262.196 15.696 263.391 16.208C267.743 18 271.626 19.664 275.039 21.2C278.538 22.6507 281.567 24.1867 284.127 25.808C286.772 27.344 288.991 29.0507 290.783 30.928C292.66 32.8053 294.154 35.0667 295.263 37.712C296.458 40.3573 297.311 43.5147 297.823 47.184C298.335 50.768 298.591 55.0773 298.591 60.112C298.591 62.5013 298.548 64.976 298.463 67.536C298.463 70.0107 298.335 72.4 298.079 74.704C297.652 77.776 296.799 80.1227 295.519 81.744C294.239 83.3653 292.66 84.6453 290.783 85.584C288.991 86.4373 286.943 87.12 284.639 87.632C282.42 88.144 280.159 88.8267 277.855 89.68C275.722 90.5333 273.716 91.728 271.839 93.264C270.047 94.7147 268.426 96.2933 266.975 98H265.439C263.647 96.0373 261.898 94.4587 260.191 93.264C258.484 92.0693 256.735 91.0453 254.943 90.192C253.236 89.3387 251.402 88.6133 249.439 88.016C247.562 87.3333 245.471 86.5227 243.167 85.584C242.826 85.4987 242.655 85.2 242.655 84.688V84.304ZM269.023 38.864C268.852 38.864 268.639 38.9067 268.383 38.992C268.127 38.992 267.999 39.1627 267.999 39.504V76.24C267.999 76.752 268.34 77.3067 269.023 77.904C269.706 78.416 270.516 78.9707 271.455 79.568C272.394 80.1653 273.332 80.7627 274.271 81.36C275.295 81.9573 276.148 82.512 276.831 83.024H277.343C277.94 83.024 278.324 82.768 278.495 82.256C278.666 81.6587 278.751 81.0187 278.751 80.336C278.751 80.08 278.708 79.8667 278.623 79.696C278.623 79.44 278.623 79.184 278.623 78.928C278.623 78.3307 278.708 77.776 278.879 77.264V66.384C278.879 63.3973 278.879 60.2827 278.879 57.04C278.879 53.7973 278.623 50.8533 278.111 48.208C277.599 45.4773 276.66 43.2587 275.295 41.552C273.93 39.76 271.839 38.864 269.023 38.864ZM307.299 81.232C307.299 80.8053 307.299 80.464 307.299 80.208C307.384 79.952 307.598 79.6533 307.939 79.312V75.6C307.939 71.9307 308.024 68.2613 308.195 64.592C308.366 60.9227 308.451 57.2107 308.451 53.456V47.824C308.195 46.7147 307.896 45.648 307.555 44.624C307.214 43.6 306.36 43.088 304.995 43.088C304.312 43.088 303.672 43.3013 303.075 43.728C302.478 44.0693 301.838 44.24 301.155 44.24V42.064C301.326 41.9787 301.88 41.552 302.819 40.784C303.843 39.9307 305.08 38.9067 306.531 37.712C307.982 36.5173 309.134 35.5787 309.987 34.896C310.414 34.5547 310.968 34.0427 311.651 33.36C312.419 32.6773 313.23 31.9947 314.083 31.312C314.936 30.544 315.747 29.904 316.515 29.392C317.368 28.88 318.051 28.624 318.563 28.624L325.987 35.408C326.328 35.5787 326.968 35.9627 327.907 36.56C328.846 37.072 329.827 37.6693 330.851 38.352C331.875 39.0347 332.771 39.7173 333.539 40.4C334.392 40.9973 334.819 41.3813 334.819 41.552C334.819 41.9787 334.52 42.32 333.923 42.576C333.326 42.832 332.6 43.1733 331.747 43.6C330.894 43.9413 330.04 44.496 329.187 45.264C328.419 45.9467 327.864 46.9707 327.523 48.336V71.632C327.523 72.3147 327.523 73.2533 327.523 74.448C327.523 75.6427 327.608 76.8373 327.779 78.032C328.035 79.2267 328.419 80.2933 328.931 81.232C329.528 82.0853 330.424 82.512 331.619 82.512C332.643 82.512 333.539 82.2987 334.307 81.872C335.16 81.4453 336.056 81.232 336.995 81.232C336.995 81.4027 336.952 81.7013 336.867 82.128C336.867 82.5547 336.867 82.8533 336.867 83.024L336.355 83.536C335.075 84.56 333.539 85.8827 331.747 87.504C329.955 89.1253 328.163 90.6613 326.371 92.112C324.579 93.5627 322.958 94.8427 321.507 95.952C320.056 96.976 319.075 97.488 318.563 97.488C318.222 97.488 317.88 97.488 317.539 97.488C317.283 97.4027 316.984 97.232 316.643 96.976L309.987 90.192C309.56 89.7653 309.176 89.168 308.835 88.4C308.494 87.5467 308.195 86.6933 307.939 85.84C307.768 84.9013 307.598 84.048 307.427 83.28C307.342 82.4267 307.299 81.744 307.299 81.232ZM309.859 13.776C309.859 10.8747 310.712 8.656 312.419 7.12C314.126 5.58399 316.43 4.81599 319.331 4.81599C321.891 4.81599 323.982 5.62666 325.603 7.24799C327.31 8.78399 328.163 10.832 328.163 13.392C328.163 16.6347 326.84 19.1093 324.195 20.816C321.635 22.4373 318.435 23.6747 314.595 24.528H313.827C313.059 24.528 312.419 24.1013 311.907 23.248C311.395 22.3093 310.968 21.2427 310.627 20.048C310.371 18.8533 310.158 17.6587 309.987 16.464C309.902 15.2693 309.859 14.3733 309.859 13.776ZM339.917 83.536C339.917 83.024 340.258 82.6827 340.941 82.512C341.709 82.3413 342.562 82.0853 343.501 81.744C344.44 81.4027 345.336 80.8907 346.189 80.208C347.042 79.44 347.554 78.288 347.725 76.752V70.48C347.725 69.968 347.768 68.688 347.853 66.64C347.938 64.592 348.024 62.416 348.109 60.112C348.28 57.808 348.408 55.632 348.493 53.584C348.664 51.536 348.749 50.256 348.749 49.744V45.648L347.725 44.624H339.277V43.984C339.277 42.7893 339.448 42.064 339.789 41.808C340.13 41.552 341.026 41.1253 342.477 40.528C344.354 39.76 346.018 38.8213 347.469 37.712C348.92 36.6027 350.242 35.28 351.437 33.744C352.717 32.208 353.954 30.4587 355.149 28.496C356.344 26.5333 357.666 24.3147 359.117 21.84C359.544 21.1573 360.098 19.9627 360.781 18.256C361.464 16.464 362.189 14.672 362.957 12.88C363.725 11.088 364.493 9.50933 365.261 8.144C366.029 6.77866 366.754 6.09599 367.437 6.09599V33.744L368.461 35.024H380.365C380.45 35.024 380.536 35.1093 380.621 35.28C380.792 35.4507 380.877 35.6213 380.877 35.792V37.2C380.877 38.48 380.834 39.5893 380.749 40.528C380.664 41.4667 380.536 42.6613 380.365 44.112H368.973C368.802 44.112 368.546 44.24 368.205 44.496C367.864 44.752 367.608 44.9653 367.437 45.136C367.266 49.3173 367.096 53.456 366.925 57.552C366.84 61.5627 366.797 65.36 366.797 68.944C366.797 70.6507 366.797 72.272 366.797 73.808C366.882 75.2587 367.053 76.5813 367.309 77.776C367.65 78.8853 368.205 79.7813 368.973 80.464C369.741 81.1467 370.893 81.488 372.429 81.488C373.112 81.488 373.709 81.3173 374.221 80.976C374.818 80.6347 375.373 80.2933 375.885 79.952C376.397 79.5253 376.909 79.1413 377.421 78.8C377.933 78.4587 378.488 78.288 379.085 78.288L379.853 78.8V79.312C379.768 79.4827 379.682 79.7813 379.597 80.208C379.512 80.5493 379.426 80.7627 379.341 80.848C377.464 82.384 375.714 83.792 374.093 85.072C372.472 86.352 370.85 87.632 369.229 88.912C367.608 90.192 365.986 91.5573 364.365 93.008C362.744 94.3733 360.994 95.8667 359.117 97.488H358.861C358.434 97.488 357.752 97.0613 356.813 96.208C355.96 95.3547 355.021 94.416 353.997 93.392C352.973 92.2827 351.949 91.216 350.925 90.192C349.986 89.168 349.261 88.4853 348.749 88.144C348.237 87.7173 347.469 87.2907 346.445 86.864C345.421 86.4373 344.44 86.0533 343.501 85.712C342.562 85.2853 341.709 84.9013 340.941 84.56C340.258 84.1333 339.917 83.792 339.917 83.536ZM383.405 83.408C383.405 83.3227 383.362 83.1947 383.277 83.024C383.277 82.768 383.277 82.64 383.277 82.64C383.277 81.9573 383.533 81.5307 384.045 81.36C384.642 81.104 385.24 80.848 385.837 80.592C386.52 80.336 387.117 79.9093 387.629 79.312C388.226 78.6293 388.525 77.5627 388.525 76.112V40.4L389.165 39.376C393.346 39.2053 397.528 38.9067 401.709 38.48C405.89 37.968 409.986 36.8587 413.997 35.152C414.594 34.896 415.405 34.4267 416.429 33.744C417.453 33.0613 418.52 32.3787 419.629 31.696C420.738 30.928 421.762 30.288 422.701 29.776C423.725 29.1787 424.493 28.88 425.005 28.88C425.773 28.88 426.328 29.0507 426.669 29.392C427.01 29.7333 427.437 30.1173 427.949 30.544C431.106 33.1893 433.496 35.8773 435.117 38.608C436.738 41.2533 437.805 44.624 438.317 48.72V59.472C438.317 60.752 438.317 62.1173 438.317 63.568C438.402 64.9333 438.445 66.3413 438.445 67.792C438.445 69.9253 438.317 72.0587 438.061 74.192C437.89 76.24 437.421 78.16 436.653 79.952C435.97 81.744 434.904 83.3227 433.453 84.688C432.088 85.968 430.253 86.9067 427.949 87.504C426.669 87.8453 425.389 88.144 424.109 88.4C422.914 88.656 421.72 88.9547 420.525 89.296C419.416 89.6373 418.306 90.064 417.197 90.576C416.088 91.088 415.021 91.7707 413.997 92.624C413.57 92.9653 413.144 93.4773 412.717 94.16C412.376 94.7573 411.949 95.3973 411.437 96.08C411.01 96.6773 410.584 97.232 410.157 97.744C409.73 98.1707 409.261 98.384 408.749 98.384H408.237C404.397 94.8853 400.514 92.0267 396.589 89.808C392.664 87.5893 388.269 85.456 383.405 83.408ZM407.725 40.912V74.064C407.725 74.6613 408.109 75.4293 408.877 76.368C409.645 77.3067 410.541 78.2453 411.565 79.184C412.674 80.0373 413.741 80.8053 414.765 81.488C415.789 82.0853 416.557 82.384 417.069 82.384C417.666 82.384 418.093 81.5307 418.349 79.824C418.69 78.032 418.904 75.984 418.989 73.68C419.16 71.376 419.202 69.072 419.117 66.768C419.117 64.3787 419.117 62.5867 419.117 61.392C419.117 59.4293 419.032 57.296 418.861 54.992C418.776 52.688 418.392 50.512 417.709 48.464C417.026 46.416 416.002 44.624 414.637 43.088C413.272 41.4667 411.309 40.4 408.749 39.888L407.725 40.912Z" fill="#47AD1D"/>
</svg>
